<?xml version="1.0" standalone="no"?><!DOCTYPE svg PUBLIC "-//W3C//DTD SVG 1.1//EN" "http://www.w3.org/Graphics/SVG/1.1/DTD/svg11.dtd"><svg t="1743155177244" class="icon" viewBox="0 0 1280 1024" version="1.1" xmlns="http://www.w3.org/2000/svg" p-id="2425" xmlns:xlink="http://www.w3.org/1999/xlink" width="250" height="200"><path d="M172.688 395.668a103.534 103.534 0 0 0-83.14 40.116v-123.748a16.38 16.38 0 0 0-16.38-16.38H16.38a16.38 16.38 0 0 0-16.38 16.38v355.066a16.378 16.378 0 0 0 16.38 16.378h56.788a16.378 16.378 0 0 0 16.38-16.378v-16.176c23.256 26.746 51.748 39.538 83.146 39.538 69.2 0 123.844-52.328 123.844-147.686-0.006-91.874-54.08-147.11-123.85-147.11zM143.032 611.382c-19.186 0-42.442-9.884-53.49-25v-86.054c11.056-15.116 34.304-25.582 53.49-25.582 35.468 0 62.214 26.164 62.214 68.026 0 42.446-26.746 68.61-62.214 68.61z m312.744-118.064a34.8 34.8 0 1 0 34.8 34.8 34.8 34.8 0 0 0-34.8-34.8z m92.136-179.918v-89.322a26.616 26.616 0 1 0-20.474 0V313.4a214.98 214.98 0 1 0 20.474 0z m171.986 214.734c0 61.062-81.584 110.562-182.224 110.562s-182.222-49.5-182.222-110.562 81.584-110.562 182.222-110.562 182.224 49.492 182.224 110.552z m-100.326 34.8a34.8 34.8 0 1 0-34.8-34.8 34.8 34.8 0 0 0 34.8 34.798zM1161.4 500.91c-29.656-5.234-44.774-7.56-44.774-19.77 0-11.046 14.536-19.768 35.47-19.768a131.12 131.12 0 0 1 68.968 20.2 16.342 16.342 0 0 0 22.576-4.936c0.14-0.22 0.276-0.442 0.4-0.666l17.222-29.772a16.4 16.4 0 0 0-5.734-22.246 199.726 199.726 0 0 0-104.028-28.276c-77.912 0-120.358 43.028-120.358 92.45 0 72.684 67.45 83.728 115.126 91.284 26.746 4.652 48.26 8.722 48.26 22.096 0 12.8-11.046 21.514-37.8 21.514-27.104 0-61.988-12.444-85.246-27.158a16.412 16.412 0 0 0-22.67 4.982 5.52 5.52 0 0 0-0.2 0.328l-20.4 33.782a16.444 16.444 0 0 0 4.982 22.132c30.448 20.6 75.326 33.384 118.882 33.384 80.818 0 127.914-39.538 127.914-93.03 0.01-76.18-70.916-87.808-118.59-96.53z m-191.856 121.574a16.422 16.422 0 0 0-19.042-11.876 46.336 46.336 0 0 1-8.31 0.774c-15.698 0-25-12.212-25-28.49V480.56h40.698a16.286 16.286 0 0 0 16.282-16.286v-45.342a16.286 16.286 0 0 0-16.282-16.286h-40.702v-60.464a16.286 16.286 0 0 0-16.286-16.286h-56.388a16.286 16.286 0 0 0-16.286 16.286v60.464H798a16.286 16.286 0 0 0-16.286 16.286v45.342A16.286 16.286 0 0 0 798 480.56h30.23v127.334c0 54.074 30.816 82.564 87.8 82.564 24.366 0 42.766-4.4 55.2-10.892a16.322 16.322 0 0 0 8.29-18.556z" p-id="2426" fill="#d4237a"></path></svg>